<?xml version="1.0" encoding="utf-8"?>
<!-- Generated by IcoMoon.io -->
<!DOCTYPE svg PUBLIC "-//W3C//DTD SVG 1.1//EN" "http://www.w3.org/Graphics/SVG/1.1/DTD/svg11.dtd">
<svg version="1.1" xmlns="http://www.w3.org/2000/svg" xmlns:xlink="http://www.w3.org/1999/xlink" width="20" height="20" viewBox="0 0 20 20">
<path fill="rgb(74, 188, 150)" d="M10 0.31c-5.352 0-9.691 4.338-9.691 9.691s4.339 9.69 9.691 9.69c5.352 0 9.69-4.339 9.69-9.69s-4.339-9.691-9.69-9.691z"></path>
<path fill="rgb(243, 244, 245)" d="M7.625 10.456c-0.714-0.277-1.213-1.217-1.213-2.286 0-0.968 0.403-1.83 1.027-2.196 0.138-0.081 0.185-0.258 0.104-0.397s-0.259-0.185-0.397-0.104c-0.798 0.468-1.314 1.526-1.314 2.696 0 1.323 0.636 2.459 1.583 2.827 0.034 0.013 0.070 0.020 0.105 0.020 0.116 0 0.226-0.070 0.27-0.185 0.058-0.149-0.016-0.317-0.165-0.375z"></path>
<path fill="rgb(243, 244, 245)" d="M6.224 11.665c-1.112-0.432-1.889-1.88-1.889-3.522 0-1.485 0.625-2.811 1.593-3.378 0.138-0.081 0.185-0.258 0.104-0.397s-0.259-0.185-0.397-0.104c-1.142 0.669-1.879 2.191-1.879 3.878 0 1.875 0.929 3.546 2.259 4.062 0.034 0.013 0.070 0.020 0.105 0.020 0.116 0 0.226-0.070 0.27-0.185 0.058-0.149-0.016-0.317-0.165-0.375z"></path>
<path fill="rgb(243, 244, 245)" d="M12.854 5.474c-0.138-0.081-0.316-0.035-0.397 0.104s-0.035 0.316 0.104 0.397c0.624 0.366 1.027 1.228 1.027 2.196 0 1.069-0.499 2.009-1.213 2.286-0.149 0.058-0.223 0.226-0.165 0.375 0.045 0.115 0.154 0.185 0.27 0.185 0.035 0 0.070-0.006 0.105-0.020 0.947-0.368 1.583-1.504 1.583-2.827-0-1.17-0.516-2.228-1.314-2.696z"></path>
<path fill="rgb(243, 244, 245)" d="M14.365 4.265c-0.138-0.081-0.316-0.035-0.397 0.104s-0.035 0.316 0.104 0.397c0.968 0.567 1.593 1.893 1.593 3.378 0 1.642-0.777 3.090-1.889 3.522-0.149 0.058-0.223 0.226-0.165 0.375 0.045 0.115 0.154 0.185 0.27 0.185 0.035 0 0.070-0.006 0.105-0.020 1.33-0.516 2.259-2.187 2.259-4.062 0-1.687-0.738-3.209-1.879-3.878z"></path>
<path fill="rgb(243, 244, 245)" d="M10.117 7.784c-0.323 0-0.586 0.263-0.586 0.586v7.874c0 0.323 0.263 0.586 0.586 0.586s0.586-0.263 0.586-0.586v-7.874c-0-0.323-0.263-0.586-0.586-0.586z"></path>
<path fill="rgb(243, 244, 245)" d="M11.683 8.37c0 0.864-0.701 1.565-1.565 1.565s-1.565-0.701-1.565-1.565c0-0.864 0.701-1.565 1.565-1.565s1.565 0.701 1.565 1.565z"></path>
</svg>
