<?xml version="1.0" encoding="utf-8"?>
<!-- Generated by IcoMoon.io -->
<!DOCTYPE svg PUBLIC "-//W3C//DTD SVG 1.1//EN" "http://www.w3.org/Graphics/SVG/1.1/DTD/svg11.dtd">
<svg version="1.1" xmlns="http://www.w3.org/2000/svg" xmlns:xlink="http://www.w3.org/1999/xlink" width="20" height="20" viewBox="0 0 20 20">
<path fill="rgb(72, 161, 175)" d="M10 0.31c-5.352 0-9.691 4.338-9.691 9.691s4.339 9.69 9.691 9.69c5.352 0 9.69-4.339 9.69-9.69s-4.339-9.691-9.69-9.691z"></path>
<path fill="rgb(0, 0, 0)" d="M11.359 14.618l0.008-1.311c0-0.113-0.092-0.206-0.205-0.206h-2.323c-0.114 0-0.205 0.092-0.205 0.206l0.009 1.306-0.48 0.722v0.14c0 0.113 0.092 0.087 0.205 0.087h3.266c0.113 0 0.206 0.026 0.206-0.087v-0.14l-0.479-0.718z"></path>
<path fill="rgb(0, 0, 0)" d="M11.359 14.5l0.008-1.31c0-0.114-0.092-0.205-0.205-0.205h-2.323c-0.114 0-0.205 0.092-0.205 0.205l0.009 1.306-0.48 0.84c0 0.114 0.092 0.088 0.205 0.088h3.266c0.113 0 0.206 0.026 0.206-0.088l-0.479-0.836z"></path>
<path fill="rgb(8, 9, 11)" d="M15.698 4.434h-11.397c-0.427 0-0.772 0.346-0.772 0.773v7.63c0 0.427 0.346 0.772 0.772 0.772h11.397c0.426 0 0.773-0.346 0.773-0.772v-7.63c0-0.427-0.346-0.773-0.773-0.773z"></path>
<path fill="rgb(52, 52, 51)" d="M4.085 4.942h11.807v0.041h-11.807v-0.041z"></path>
<path fill="rgb(8, 9, 11)" d="M4.302 4.434c-0.427 0-0.772 0.346-0.772 0.773v6.702h0.556v-6.955h9.285l0.363-0.519h-9.431z"></path>
<path fill="rgba(0, 0, 0, 0.30000001192092896)" d="M15.698 4.434h-1.966l-0.363 0.519h2.522v6.955h0.579v-6.701c0-0.427-0.346-0.773-0.773-0.773z"></path>
<path fill="rgb(211, 211, 211)" d="M4.085 4.953h11.807v8.1h-11.807v-8.1z"></path>
<path fill="rgb(51, 113, 128)" d="M10 5.524c-1.9 0-3.441 1.54-3.441 3.441s1.54 3.441 3.441 3.441c1.9 0 3.441-1.54 3.441-3.441s-1.54-3.441-3.441-3.441z"></path>
<path fill="rgb(163, 213, 224)" d="M12.379 9.126c0.324-0.11 0.677-0.184 1.061-0.219-0.001-0.062-0.004-0.123-0.008-0.185-0.409 0.037-0.771 0.115-1.092 0.224-0.087-0.371-0.199-0.701-0.328-0.996 0.341-0.142 0.695-0.317 1.063-0.531-0.028-0.055-0.057-0.109-0.087-0.163-0.364 0.212-0.716 0.385-1.052 0.525-0.253-0.527-0.557-0.93-0.85-1.232-0.089-0.091-0.178-0.176-0.267-0.254 0.335-0.093 0.691-0.162 1.070-0.208-0.082-0.054-0.167-0.105-0.254-0.152-0.298 0.045-0.577 0.105-0.837 0.177 0.062-0.178 0.125-0.33 0.177-0.449-0.060-0.018-0.121-0.034-0.183-0.049-0.059 0.133-0.128 0.302-0.195 0.499-0.37-0.284-0.722-0.462-0.984-0.569-0.127 0.014-0.253 0.035-0.375 0.063 0.202 0.060 0.678 0.23 1.197 0.615-0.7 0.24-1.25 0.574-1.684 0.947-0.269-0.529-0.558-0.896-0.689-1.049-0.051 0.035-0.101 0.071-0.15 0.109 0.121 0.141 0.423 0.52 0.696 1.068-0.263 0.246-0.479 0.506-0.655 0.766-0.483-0.158-0.85-0.363-1.087-0.52-0.026 0.057-0.050 0.116-0.073 0.175 0.24 0.156 0.594 0.351 1.056 0.506-0.108 0.173-0.199 0.344-0.276 0.51-0.098 0.21-0.177 0.417-0.241 0.617-0.368-0.589-0.559-1.121-0.632-1.357-0.032 0.11-0.059 0.222-0.080 0.336 0.118 0.313 0.321 0.769 0.643 1.254-0.13 0.476-0.178 0.894-0.193 1.179 0.055 0.090 0.115 0.177 0.178 0.261 0-0.208 0.019-0.674 0.156-1.239 0.059 0.081 0.12 0.162 0.186 0.244 0.295 0.365 0.685 0.751 1.188 1.080-0.123 0.287-0.278 0.571-0.464 0.852 0.054 0.030 0.108 0.059 0.164 0.087 0.187-0.285 0.337-0.566 0.455-0.841 0.291 0.175 0.617 0.33 0.982 0.451-0.081 0.31-0.116 0.572-0.131 0.739 0.061 0.004 0.123 0.006 0.186 0.007 0.015-0.158 0.049-0.402 0.123-0.69 0.469 0.137 0.998 0.219 1.593 0.219 0.019 0 0.039-0 0.059-0.001 0.102-0.060 0.2-0.124 0.294-0.194-0.684 0.037-1.317-0.029-1.898-0.196 0.065-0.217 0.152-0.452 0.271-0.689 0.188-0.374 0.421-0.694 0.697-0.962 0.318 0.36 0.731 0.668 1.237 0.921-0.003 0.229-0.015 0.463-0.035 0.703 0.069-0.063 0.136-0.128 0.2-0.196 0.009-0.143 0.015-0.283 0.019-0.419 0.079 0.036 0.161 0.071 0.244 0.105 0.037-0.051 0.074-0.103 0.108-0.155-0.121-0.048-0.237-0.099-0.349-0.152 0.001-0.588-0.054-1.109-0.149-1.572zM10.695 6.435c0.086 0.075 0.172 0.156 0.257 0.244 0.328 0.338 0.599 0.731 0.812 1.172-0.436 0.169-0.847 0.283-1.23 0.354-0.087-0.64 0.017-1.269 0.16-1.77zM10.51 6.39c-0.148 0.52-0.254 1.174-0.159 1.847-0.432 0.067-0.826 0.079-1.179 0.058-0.034-0.139-0.074-0.271-0.115-0.396-0.068-0.202-0.146-0.39-0.227-0.564 0.466-0.411 1.026-0.727 1.68-0.946zM8.687 7.467c0.070 0.153 0.136 0.317 0.195 0.491 0.036 0.107 0.068 0.214 0.096 0.321-0.246-0.024-0.469-0.064-0.669-0.112-0.060-0.015-0.119-0.030-0.176-0.046 0.164-0.238 0.349-0.455 0.554-0.653zM8.843 10.943c-0.407-0.272-0.776-0.613-1.108-1.022-0.099-0.122-0.189-0.245-0.272-0.366 0.069-0.24 0.16-0.493 0.279-0.748 0.086-0.184 0.181-0.358 0.286-0.524 0.074 0.022 0.15 0.042 0.228 0.062 0.227 0.056 0.484 0.1 0.769 0.125 0.187 0.843 0.126 1.671-0.182 2.474zM10.24 10.778c-0.123 0.246-0.213 0.487-0.281 0.711-0.339-0.113-0.66-0.261-0.962-0.446 0.373-0.961 0.364-1.845 0.217-2.561 0.089 0.004 0.18 0.007 0.274 0.007 0.277 0 0.576-0.021 0.893-0.070 0.032 0.165 0.078 0.331 0.138 0.496 0.112 0.304 0.269 0.584 0.47 0.839-0.344 0.328-0.584 0.691-0.75 1.024zM11.128 9.629c-0.186-0.237-0.331-0.496-0.434-0.777-0.057-0.154-0.099-0.309-0.129-0.465 0.398-0.074 0.825-0.192 1.278-0.369 0.135 0.308 0.243 0.64 0.324 0.992-0.416 0.163-0.758 0.378-1.038 0.619zM11.242 9.767c0.28-0.242 0.601-0.434 0.962-0.577 0.088 0.441 0.134 0.914 0.139 1.416-0.447-0.235-0.815-0.515-1.101-0.839z"></path>
<path fill="rgb(186, 235, 244)" d="M12.536 9.066c0 0.149-0.12 0.269-0.269 0.269s-0.269-0.12-0.269-0.269c0-0.149 0.12-0.269 0.269-0.269s0.269 0.12 0.269 0.269z"></path>
<path fill="rgb(186, 235, 244)" d="M11.376 9.743c0 0.149-0.12 0.269-0.269 0.269s-0.269-0.12-0.269-0.269c0-0.149 0.12-0.269 0.269-0.269s0.269 0.12 0.269 0.269z"></path>
<path fill="rgb(186, 235, 244)" d="M10.284 11.618c0 0.149-0.12 0.269-0.269 0.269s-0.269-0.12-0.269-0.269c0-0.149 0.12-0.269 0.269-0.269s0.269 0.12 0.269 0.269z"></path>
<path fill="rgb(186, 235, 244)" d="M8.885 10.796c-0.148 0-0.269 0.12-0.269 0.269s0.121 0.269 0.269 0.269c0.149 0 0.269-0.12 0.269-0.269s-0.121-0.269-0.269-0.269z"></path>
<path fill="rgb(186, 235, 244)" d="M7.624 9.566c0 0.149-0.12 0.269-0.269 0.269s-0.269-0.12-0.269-0.269c0-0.149 0.12-0.269 0.269-0.269s0.269 0.12 0.269 0.269z"></path>
<path fill="rgb(186, 235, 244)" d="M8.262 8.167c0 0.149-0.12 0.269-0.269 0.269s-0.269-0.12-0.269-0.269c0-0.149 0.12-0.269 0.269-0.269s0.269 0.12 0.269 0.269z"></path>
<path fill="rgb(186, 235, 244)" d="M9.385 8.39c0 0.149-0.12 0.269-0.269 0.269s-0.269-0.12-0.269-0.269c0-0.149 0.12-0.269 0.269-0.269s0.269 0.12 0.269 0.269z"></path>
<path fill="rgb(186, 235, 244)" d="M8.977 7.298c0 0.149-0.12 0.269-0.269 0.269s-0.269-0.12-0.269-0.269c0-0.149 0.12-0.269 0.269-0.269s0.269 0.12 0.269 0.269z"></path>
<path fill="rgb(186, 235, 244)" d="M10.653 5.891c-0.187 0-0.338 0.151-0.338 0.338s0.152 0.338 0.338 0.338c0.187 0 0.338-0.151 0.338-0.338s-0.151-0.338-0.338-0.338z"></path>
<path fill="rgb(186, 235, 244)" d="M10.722 8.328c0 0.149-0.12 0.269-0.269 0.269s-0.269-0.12-0.269-0.269c0-0.149 0.12-0.269 0.269-0.269s0.269 0.12 0.269 0.269z"></path>
<path fill="rgb(186, 235, 244)" d="M11.906 7.629c-0.149 0-0.269 0.12-0.269 0.269s0.12 0.269 0.269 0.269c0.149 0 0.269-0.12 0.269-0.269s-0.12-0.269-0.269-0.269z"></path>
<path fill="rgb(186, 235, 244)" d="M12.698 10.727c0 0.149-0.12 0.269-0.269 0.269s-0.269-0.12-0.269-0.269c0-0.149 0.12-0.269 0.269-0.269s0.269 0.12 0.269 0.269z"></path>
</svg>
