<?xml version="1.0" encoding="utf-8"?>
<!-- Generator: Adobe Illustrator 16.0.0, SVG Export Plug-In . SVG Version: 6.00 Build 0)  -->
<!DOCTYPE svg PUBLIC "-//W3C//DTD SVG 1.1//EN" "http://www.w3.org/Graphics/SVG/1.1/DTD/svg11.dtd">
<svg version="1.1" id="Layer_1" xmlns="http://www.w3.org/2000/svg" xmlns:xlink="http://www.w3.org/1999/xlink" x="0px" y="0px"
	 width="20px" height="20px" viewBox="0 0 20 20" enable-background="new 0 0 20 20" xml:space="preserve">
<g>
	<path fill="#357180" d="M19.69,10c0,5.352-4.339,9.69-9.69,9.69S0.31,15.352,0.31,10S4.648,0.31,10,0.31S19.69,4.648,19.69,10z"/>
	<path fill="#DFCC6B" d="M13.678,7.456c-1.143-0.125-1.394,0.26-2.44-0.11C10.541,7.1,11.104,5.132,9.485,4.93
		C6.969,4.616,5.184,5.921,4.56,8.68c-0.735,3.244,1.328,6.478,4.607,7.22c3.28,0.743,6.535-1.284,7.27-4.529
		C16.946,9.12,15.844,7.692,13.678,7.456z M8.616,8.096C8.407,8.603,7.772,8.823,7.199,8.587c-0.572-0.236-0.868-0.84-0.66-1.347
		c0.21-0.506,0.844-0.726,1.417-0.489S8.824,7.59,8.616,8.096L8.616,8.096z"/>
	<path fill="#EEDD7A" d="M13.547,7.282c-1.144-0.125-1.394,0.26-2.441-0.11c-0.696-0.246-0.132-2.215-1.751-2.417
		c-2.518-0.313-4.302,0.992-4.926,3.75c-0.735,3.245,1.327,6.477,4.606,7.22c3.28,0.743,6.535-1.283,7.271-4.528
		C16.814,8.945,15.712,7.517,13.547,7.282L13.547,7.282z M8.484,7.921C8.276,8.428,7.642,8.647,7.068,8.412S6.2,7.573,6.409,7.065
		c0.209-0.507,0.844-0.727,1.416-0.49C8.398,6.812,8.693,7.414,8.484,7.921z"/>
	<path fill="#DBC55E" d="M7.825,6.575c-0.572-0.236-1.207-0.017-1.416,0.49s0.086,1.11,0.659,1.347s1.207,0.016,1.416-0.491
		S8.398,6.811,7.825,6.575z M8.284,7.839C8.115,8.248,7.604,8.425,7.142,8.234C6.678,8.044,6.44,7.558,6.608,7.149
		C6.777,6.74,7.289,6.562,7.751,6.753C8.213,6.944,8.451,7.43,8.284,7.839L8.284,7.839z"/>
	<path fill="#DBC55E" d="M7.957,6.75C7.384,6.514,6.75,6.734,6.54,7.239C6.331,7.745,6.627,8.351,7.2,8.585
		c0.573,0.237,1.207,0.018,1.417-0.49C8.826,7.587,8.531,6.985,7.957,6.75L7.957,6.75z M8.415,8.013
		C8.247,8.422,7.736,8.6,7.273,8.409s-0.7-0.677-0.532-1.085c0.168-0.409,0.68-0.587,1.142-0.396
		C8.346,7.117,8.583,7.604,8.415,8.013z"/>
	<path fill="#F1E089" d="M11.108,7.172c-0.698-0.246,0.088-2.018-1.753-2.417C6.876,4.218,5.054,5.747,4.43,8.505
		c-0.629,2.776,0.79,5.544,3.268,6.75C8.115,15.46,12.154,7.542,11.108,7.172L11.108,7.172z M8.484,7.921
		C8.276,8.428,7.642,8.647,7.068,8.412S6.2,7.573,6.409,7.065c0.209-0.507,0.844-0.727,1.416-0.49
		C8.398,6.812,8.693,7.414,8.484,7.921z"/>
	<path fill="#DBC55E" d="M15.742,10.037c0.143,0.476-0.366,1.087-0.962,0.923c-0.525-0.144-1.056-0.38-1.009-0.873
		c0.086-0.891,0.419-0.911,0.962-0.924C15.276,9.149,15.595,9.541,15.742,10.037z"/>
	<path fill="#E84849" d="M15.576,9.908c0.186,0.378-0.155,0.962-0.678,0.906c-0.46-0.05-0.936-0.173-0.964-0.593
		c-0.052-0.757,0.224-0.819,0.677-0.906C15.065,9.229,15.385,9.513,15.576,9.908L15.576,9.908z"/>
	<path fill="#DBC55E" d="M14.788,12.576c0.021,0.495-0.622,0.964-1.159,0.658c-0.474-0.27-0.93-0.627-0.763-1.095
		c0.302-0.841,0.629-0.779,1.159-0.658C14.555,11.603,14.767,12.06,14.788,12.576L14.788,12.576z"/>
	<path fill="#E79E2D" d="M14.661,12.411c0.084,0.411-0.389,0.893-0.882,0.711c-0.433-0.16-0.864-0.396-0.788-0.81
		c0.136-0.745,0.418-0.739,0.879-0.712c0.46,0.027,0.7,0.38,0.788,0.811H14.661z"/>
	<path fill="#DBC55E" d="M12.275,14.478c-0.28,0.411-1.075,0.4-1.322-0.164c-0.219-0.499-0.371-1.06,0.043-1.334
		c0.745-0.493,0.969-0.249,1.322,0.166C12.672,13.559,12.566,14.051,12.275,14.478z"/>
	<path fill="#DAC425" d="M12.271,14.269c-0.178,0.382-0.845,0.484-1.131,0.045c-0.251-0.386-0.457-0.834-0.148-1.121
		c0.557-0.517,0.778-0.342,1.131-0.045C12.476,13.443,12.455,13.872,12.271,14.269z"/>
	<path fill="#DBC55E" d="M9.494,14.513c-0.361,0.342-1.136,0.165-1.259-0.439c-0.108-0.533-0.139-1.113,0.323-1.294
		c0.832-0.326,1-0.039,1.259,0.439C10.076,13.699,9.868,14.158,9.494,14.513z"/>
	<path fill="#6CC077" d="M9.534,14.308c-0.255,0.336-0.928,0.296-1.114-0.194c-0.166-0.431-0.271-0.913,0.091-1.128
		c0.651-0.389,0.832-0.171,1.114,0.194C9.908,13.547,9.799,13.958,9.534,14.308z"/>
	<path fill="#276D69" d="M10.707,8.124c1.023-0.853,1.09-0.344,1.394-0.041c0.298,0.298,0.784,0.363-0.041,1.394
		c-0.82,1.023-3.176,1.824-3.176,1.824s0.818-2.336,1.825-3.176L10.707,8.124z"/>
	<path fill="#355957" d="M12.101,8.083c0.298,0.298,0.784,0.363-0.041,1.394c-0.82,1.023-3.176,1.824-3.176,1.824L12.101,8.083
		L12.101,8.083z"/>
	<path fill="#E79E2D" d="M11.638,7.598c-0.134,0.134,0.739,1.044,0.892,0.893l5.16-4.386c-0.002-0.001-0.002-0.002-0.004-0.003
		c-0.018,0.017-0.035,0.031-0.047,0.044l-5.106,4.34c-0.077,0.077-0.334-0.112-0.555-0.338c0,0,3.688-3.686,4.936-4.935
		c-0.276-0.281-0.569-0.545-0.878-0.791l-0.082,0.094l-4.317,5.083L11.638,7.598z"/>
	<path fill="#D68A28" d="M11.979,8.147c0.221,0.226,0.478,0.415,0.555,0.338l5.107-4.34c0.012-0.013,0.028-0.029,0.047-0.044
		c-0.24-0.312-0.498-0.609-0.771-0.889C15.667,4.462,11.979,8.147,11.979,8.147L11.979,8.147z"/>
	<path fill="#CDCCCB" d="M12.527,8.492l4.115-3.465l-1.542-1.542l-3.465,4.115C11.509,7.727,12.383,8.636,12.527,8.492z"/>
	<path fill="#B1B1B2" d="M12.527,8.492l4.115-3.465L15.87,4.256c0,0-3.922,3.86-3.892,3.892C12.202,8.371,12.454,8.564,12.527,8.492
		L12.527,8.492z"/>
	<path fill="#BFBEBE" d="M13.339,7.709l2.987-2.419l-1.439-1.551l-2.51,3C12.279,6.835,13.23,7.818,13.339,7.709z"/>
	<path fill="#AAAAAA" d="M12.527,8.492l3.858-3.249l-0.754-0.754c0,0-3.676,3.636-3.653,3.657
		C12.202,8.37,12.454,8.563,12.527,8.492z"/>
</g>
</svg>
