<?xml version="1.0" encoding="utf-8"?>
<!-- Generated by IcoMoon.io -->
<!DOCTYPE svg PUBLIC "-//W3C//DTD SVG 1.1//EN" "http://www.w3.org/Graphics/SVG/1.1/DTD/svg11.dtd">
<svg version="1.1" xmlns="http://www.w3.org/2000/svg" xmlns:xlink="http://www.w3.org/1999/xlink" width="20" height="20" viewBox="0 0 20 20">
<path fill="rgb(229, 170, 23)" d="M0.309 10c0-5.352 4.339-9.691 9.69-9.691s9.691 4.338 9.691 9.691c0 5.352-4.339 9.69-9.691 9.69s-9.69-4.339-9.69-9.69z"></path>
<path fill="rgb(255, 255, 255)" d="M5.222 9.382h9.555v6.244h-9.555v-6.244z"></path>
<path fill="rgb(255, 255, 255)" d="M13.661 13.287c-0.301 0-0.545-0.244-0.545-0.545v-5.312c0-1.718-1.398-3.115-3.115-3.115s-3.115 1.398-3.115 3.115c0 0.301-0.244 0.545-0.545 0.545s-0.545-0.244-0.545-0.545c0-2.319 1.887-4.206 4.206-4.206s4.206 1.887 4.206 4.206v5.312c0 0.301-0.244 0.546-0.545 0.546z"></path>
<path fill="rgb(229, 170, 23)" d="M11.041 12.081c0-0.575-0.466-1.041-1.041-1.041s-1.041 0.466-1.041 1.041c0 0.366 0.189 0.687 0.474 0.872 0 0.166 0 0.367 0 0.447 0 0.313 0.254 0.567 0.567 0.567s0.567-0.254 0.567-0.567c0-0.080 0-0.282 0-0.447 0.285-0.186 0.474-0.507 0.474-0.872z"></path>
</svg>
