<?xml version="1.0" encoding="utf-8"?>
<!-- Generated by IcoMoon.io -->
<!DOCTYPE svg PUBLIC "-//W3C//DTD SVG 1.1//EN" "http://www.w3.org/Graphics/SVG/1.1/DTD/svg11.dtd">
<svg version="1.1" xmlns="http://www.w3.org/2000/svg" xmlns:xlink="http://www.w3.org/1999/xlink" width="20" height="20" viewBox="0 0 20 20">
<path fill="rgb(50, 190, 166)" d="M19.691 10c0-5.352-4.339-9.691-9.69-9.691s-9.691 4.338-9.691 9.691c0 5.352 4.339 9.69 9.691 9.69s9.69-4.339 9.69-9.69z"></path>
<path fill="rgb(155, 155, 155)" d="M12.763 14.876c0 0.104-0.084 0.080-0.189 0.080h-2.995c-0.104 0-0.188 0.024-0.188-0.080v-0.128l0.44-0.662-0.008-1.198c0-0.104 0.084-0.188 0.188-0.188h2.13c0.104 0 0.189 0.084 0.189 0.188l-0.007 1.202 0.44 0.658v0.128z"></path>
<path fill="rgb(191, 191, 191)" d="M12.763 14.747c0 0.104-0.084 0.080-0.189 0.080h-2.995c-0.104 0-0.188 0.024-0.188-0.080l0.44-0.77-0.008-1.198c0-0.104 0.084-0.188 0.188-0.188h2.13c0.104 0 0.189 0.084 0.189 0.188l-0.007 1.202 0.44 0.766z"></path>
<path fill="rgb(191, 191, 191)" d="M9.392 12.591h3.372v0.258h-3.372v-0.258z"></path>
<path fill="rgb(191, 191, 191)" d="M9.392 12.849h3.372v0.016h-3.372v-0.016z"></path>
<path fill="rgb(191, 191, 191)" d="M9.392 12.865h3.372v0.016h-3.372v-0.016z"></path>
<path fill="rgb(191, 191, 191)" d="M9.392 12.881h3.372v0.016h-3.372v-0.016z"></path>
<path fill="rgb(191, 191, 191)" d="M9.392 12.897h3.372v0.016h-3.372v-0.016z"></path>
<path fill="rgb(191, 191, 191)" d="M9.392 12.913h3.372v0.016h-3.372v-0.016z"></path>
<path fill="rgb(191, 191, 191)" d="M9.392 12.929h3.372v0.016h-3.372v-0.016z"></path>
<path fill="rgb(191, 191, 191)" d="M9.392 12.945h3.372v0.016h-3.372v-0.016z"></path>
<path fill="rgb(191, 191, 191)" d="M9.392 12.962h3.372v0.016h-3.372v-0.016z"></path>
<path fill="rgb(191, 191, 191)" d="M9.392 12.978h3.372v0.016h-3.372v-0.016z"></path>
<path fill="rgb(191, 191, 191)" d="M9.392 12.994h3.372v0.016h-3.372v-0.016z"></path>
<path fill="rgb(191, 191, 191)" d="M9.392 13.010h3.372v0.016h-3.372v-0.016z"></path>
<path fill="rgb(191, 191, 191)" d="M9.392 13.026h3.372v0.016h-3.372v-0.016z"></path>
<path fill="rgb(191, 191, 191)" d="M9.392 13.042h3.372v0.016h-3.372v-0.016z"></path>
<path fill="rgb(191, 191, 191)" d="M9.392 13.058h3.372v0.016h-3.372v-0.016z"></path>
<path fill="rgb(191, 191, 191)" d="M9.392 13.074h3.372v0.016h-3.372v-0.016z"></path>
<path fill="rgb(191, 191, 191)" d="M9.392 13.091h3.372v0.016h-3.372v-0.016z"></path>
<path fill="rgb(191, 191, 191)" d="M9.392 13.107h3.372v0.016h-3.372v-0.016z"></path>
<path fill="rgb(191, 191, 191)" d="M9.392 13.123h3.372v0.016h-3.372v-0.016z"></path>
<path fill="rgb(191, 191, 191)" d="M9.392 13.139h3.372v0.016h-3.372v-0.016z"></path>
<path fill="rgb(191, 191, 191)" d="M9.392 13.155h3.372v0.016h-3.372v-0.016z"></path>
<path fill="rgb(191, 191, 191)" d="M9.392 13.171h3.372v0.016h-3.372v-0.016z"></path>
<path fill="rgb(191, 191, 191)" d="M9.392 13.187h3.372v0.016h-3.372v-0.016z"></path>
<path fill="rgb(191, 191, 191)" d="M9.392 13.204h3.372v0.016h-3.372v-0.016z"></path>
<path fill="rgb(191, 191, 191)" d="M9.392 13.22h3.372v0.016h-3.372v-0.016z"></path>
<path fill="rgb(191, 191, 191)" d="M9.392 13.236h3.372v0.016h-3.372v-0.016z"></path>
<path fill="rgb(191, 191, 191)" d="M9.392 13.252h3.372v0.016h-3.372v-0.016z"></path>
<path fill="rgb(191, 191, 191)" d="M9.392 13.268h3.372v0.016h-3.372v-0.016z"></path>
<path fill="rgb(191, 191, 191)" d="M9.392 13.284h3.372v0.016h-3.372v-0.016z"></path>
<path fill="rgb(191, 191, 191)" d="M9.392 13.3h3.372v0.016h-3.372v-0.016z"></path>
<path fill="rgb(191, 191, 191)" d="M9.392 13.316h3.372v0.016h-3.372v-0.016z"></path>
<path fill="rgb(191, 191, 191)" d="M9.392 13.333h3.372v0.016h-3.372v-0.016z"></path>
<path fill="rgb(191, 191, 191)" d="M9.392 13.349h3.372v0.016h-3.372v-0.016z"></path>
<path fill="rgb(191, 191, 191)" d="M9.392 13.365h3.372v0.016h-3.372v-0.016z"></path>
<path fill="rgb(191, 191, 191)" d="M9.392 13.381h3.372v0.016h-3.372v-0.016z"></path>
<path fill="rgb(191, 191, 191)" d="M9.392 13.397h3.372v0.016h-3.372v-0.016z"></path>
<path fill="rgb(191, 191, 191)" d="M9.392 13.413h3.372v0.016h-3.372v-0.016z"></path>
<path fill="rgb(191, 191, 191)" d="M9.392 13.429h3.372v0.016h-3.372v-0.016z"></path>
<path fill="rgb(191, 191, 191)" d="M9.392 13.445h3.372v0.016h-3.372v-0.016z"></path>
<path fill="rgb(191, 191, 191)" d="M9.392 13.462h3.372v0.016h-3.372v-0.016z"></path>
<path fill="rgb(191, 191, 191)" d="M9.392 13.478h3.372v0.016h-3.372v-0.016z"></path>
<path fill="rgb(191, 191, 191)" d="M9.392 13.494h3.372v0.016h-3.372v-0.016z"></path>
<path fill="rgb(191, 191, 191)" d="M9.392 13.51h3.372v0.016h-3.372v-0.016z"></path>
<path fill="rgb(191, 191, 191)" d="M9.392 13.526h3.372v0.016h-3.372v-0.016z"></path>
<path fill="rgb(191, 191, 191)" d="M9.392 13.542h3.372v0.016h-3.372v-0.016z"></path>
<path fill="rgb(191, 191, 191)" d="M9.392 13.558h3.372v0.016h-3.372v-0.016z"></path>
<path fill="rgb(191, 191, 191)" d="M9.392 13.574h3.372v0.016h-3.372v-0.016z"></path>
<path fill="rgb(191, 191, 191)" d="M9.392 13.591h3.372v0.016h-3.372v-0.016z"></path>
<path fill="rgb(191, 191, 191)" d="M9.392 13.607h3.372v0.016h-3.372v-0.016z"></path>
<path fill="rgb(191, 191, 191)" d="M9.392 13.623h3.372v0.016h-3.372v-0.016z"></path>
<path fill="rgb(191, 191, 191)" d="M9.392 13.639h3.372v0.016h-3.372v-0.016z"></path>
<path fill="rgb(191, 191, 191)" d="M9.392 13.655h3.372v0.016h-3.372v-0.016z"></path>
<path fill="rgb(191, 191, 191)" d="M9.392 13.671h3.372v0.016h-3.372v-0.016z"></path>
<path fill="rgb(191, 191, 191)" d="M9.392 13.687h3.372v0.016h-3.372v-0.016z"></path>
<path fill="rgb(191, 191, 191)" d="M9.392 13.704h3.372v0.003h-3.372v-0.003z"></path>
<path fill="rgb(191, 191, 191)" d="M9.392 13.707h3.372v0.003h-3.372v-0.003z"></path>
<path fill="rgb(191, 191, 191)" d="M9.392 13.71h3.372v0.003h-3.372v-0.003z"></path>
<path fill="rgb(191, 191, 191)" d="M9.392 13.714h3.372v0.003h-3.372v-0.003z"></path>
<path fill="rgb(191, 191, 191)" d="M9.392 13.717h3.372v0.003h-3.372v-0.003z"></path>
<path fill="rgb(191, 191, 191)" d="M9.392 13.721h3.372v0.003h-3.372v-0.003z"></path>
<path fill="rgb(191, 191, 191)" d="M9.392 13.724h3.372v0.003h-3.372v-0.003z"></path>
<path fill="rgb(191, 191, 191)" d="M9.392 13.728h3.372v0.003h-3.372v-0.003z"></path>
<path fill="rgb(191, 191, 191)" d="M9.392 13.731h3.372v0.003h-3.372v-0.003z"></path>
<path fill="rgb(191, 191, 191)" d="M9.392 13.734h3.372v0.003h-3.372v-0.003z"></path>
<path fill="rgb(191, 191, 191)" d="M9.392 13.738h3.372v0.003h-3.372v-0.003z"></path>
<path fill="rgb(191, 191, 191)" d="M9.392 13.741h3.372v0.003h-3.372v-0.003z"></path>
<path fill="rgb(191, 191, 191)" d="M9.392 13.745h3.372v0.003h-3.372v-0.003z"></path>
<path fill="rgb(191, 191, 191)" d="M9.392 13.748h3.372v0.003h-3.372v-0.003z"></path>
<path fill="rgb(191, 191, 191)" d="M9.392 13.752h3.372v0.003h-3.372v-0.003z"></path>
<path fill="rgb(191, 191, 191)" d="M9.392 13.755h3.372v0.003h-3.372v-0.003z"></path>
<path fill="rgb(191, 191, 191)" d="M9.392 13.758h3.372v0.003h-3.372v-0.003z"></path>
<path fill="rgb(191, 191, 191)" d="M9.392 13.762h3.372v0.003h-3.372v-0.003z"></path>
<path fill="rgb(191, 191, 191)" d="M9.392 13.765h3.372v0.003h-3.372v-0.003z"></path>
<path fill="rgb(191, 191, 191)" d="M9.392 13.769h3.372v0.003h-3.372v-0.003z"></path>
<path fill="rgb(191, 191, 191)" d="M9.392 13.772h3.372v0.003h-3.372v-0.003z"></path>
<path fill="rgb(191, 191, 191)" d="M9.392 13.776h3.372v0.003h-3.372v-0.003z"></path>
<path fill="rgb(191, 191, 191)" d="M9.392 13.779h3.372v0.003h-3.372v-0.003z"></path>
<path fill="rgb(191, 191, 191)" d="M9.392 13.782h3.372v0.003h-3.372v-0.003z"></path>
<path fill="rgb(191, 191, 191)" d="M9.392 13.786h3.372v0.003h-3.372v-0.003z"></path>
<path fill="rgb(191, 191, 191)" d="M9.392 13.789h3.372v0.003h-3.372v-0.003z"></path>
<path fill="rgb(191, 191, 191)" d="M9.392 13.793h3.372v0.003h-3.372v-0.003z"></path>
<path fill="rgb(191, 191, 191)" d="M9.392 13.796h3.372v0.003h-3.372v-0.003z"></path>
<path fill="rgb(191, 191, 191)" d="M9.392 13.8h3.372v0.003h-3.372v-0.003z"></path>
<path fill="rgb(191, 191, 191)" d="M9.392 13.803h3.372v0.003h-3.372v-0.003z"></path>
<path fill="rgb(191, 191, 191)" d="M9.392 13.807h3.372v0.003h-3.372v-0.003z"></path>
<path fill="rgb(191, 191, 191)" d="M9.392 13.81h3.372v0.003h-3.372v-0.003z"></path>
<path fill="rgb(191, 191, 191)" d="M9.392 13.813h3.372v0.003h-3.372v-0.003z"></path>
<path fill="rgb(191, 191, 191)" d="M9.392 13.817h3.372v0.003h-3.372v-0.003z"></path>
<path fill="rgb(191, 191, 191)" d="M9.392 13.82h3.372v0.003h-3.372v-0.003z"></path>
<path fill="rgb(191, 191, 191)" d="M9.392 13.824h3.372v0.003h-3.372v-0.003z"></path>
<path fill="rgb(191, 191, 191)" d="M9.392 13.827h3.372v0.003h-3.372v-0.003z"></path>
<path fill="rgb(191, 191, 191)" d="M9.392 13.831h3.372v0.003h-3.372v-0.003z"></path>
<path fill="rgb(191, 191, 191)" d="M9.392 13.834h3.372v0.003h-3.372v-0.003z"></path>
<path fill="rgb(191, 191, 191)" d="M9.392 13.837h3.372v0.003h-3.372v-0.003z"></path>
<path fill="rgb(191, 191, 191)" d="M9.392 13.841h3.372v0.003h-3.372v-0.003z"></path>
<path fill="rgb(191, 191, 191)" d="M9.392 13.844h3.372v0.003h-3.372v-0.003z"></path>
<path fill="rgb(191, 191, 191)" d="M9.392 13.848h3.372v0.003h-3.372v-0.003z"></path>
<path fill="rgb(191, 191, 191)" d="M9.392 13.851h3.372v0.003h-3.372v-0.003z"></path>
<path fill="rgb(191, 191, 191)" d="M9.392 13.855h3.372v0.003h-3.372v-0.003z"></path>
<path fill="rgb(191, 191, 191)" d="M9.392 13.858h3.372v0.003h-3.372v-0.003z"></path>
<path fill="rgb(191, 191, 191)" d="M9.392 13.861h3.372v0.003h-3.372v-0.003z"></path>
<path fill="rgb(191, 191, 191)" d="M9.392 13.865h3.372v0.003h-3.372v-0.003z"></path>
<path fill="rgb(191, 191, 191)" d="M9.392 13.868h3.372v0.003h-3.372v-0.003z"></path>
<path fill="rgb(191, 191, 191)" d="M9.392 13.872h3.372v0.003h-3.372v-0.003z"></path>
<path fill="rgb(191, 191, 191)" d="M9.392 13.875h3.372v0.003h-3.372v-0.003z"></path>
<path fill="rgb(191, 191, 191)" d="M9.392 13.879h3.372v0.003h-3.372v-0.003z"></path>
<path fill="rgb(191, 191, 191)" d="M9.392 13.882h3.372v0.003h-3.372v-0.003z"></path>
<path fill="rgb(191, 191, 191)" d="M9.392 13.886h3.372v0.003h-3.372v-0.003z"></path>
<path fill="rgb(191, 191, 191)" d="M9.392 13.889h3.372v0.003h-3.372v-0.003z"></path>
<path fill="rgb(191, 191, 191)" d="M9.392 13.892h3.372v0.003h-3.372v-0.003z"></path>
<path fill="rgb(191, 191, 191)" d="M9.392 13.896h3.372v0.003h-3.372v-0.003z"></path>
<path fill="rgb(191, 191, 191)" d="M9.392 13.899h3.372v0.003h-3.372v-0.003z"></path>
<path fill="rgb(191, 191, 191)" d="M9.392 13.903h3.372v0.003h-3.372v-0.003z"></path>
<path fill="rgb(191, 191, 191)" d="M9.392 13.906h3.372v0.003h-3.372v-0.003z"></path>
<path fill="rgb(191, 191, 191)" d="M9.392 13.91h3.372v0.003h-3.372v-0.003z"></path>
<path fill="rgb(191, 191, 191)" d="M9.392 13.913h3.372v0.003h-3.372v-0.003z"></path>
<path fill="rgb(191, 191, 191)" d="M9.392 13.916h3.372v0.003h-3.372v-0.003z"></path>
<path fill="rgb(191, 191, 191)" d="M9.392 13.92h3.372v0.003h-3.372v-0.003z"></path>
<path fill="rgb(191, 191, 191)" d="M9.392 13.923h3.372v0.003h-3.372v-0.003z"></path>
<path fill="rgb(191, 191, 191)" d="M9.392 13.927h3.372v0.003h-3.372v-0.003z"></path>
<path fill="rgb(191, 191, 191)" d="M9.392 13.93h3.372v0.003h-3.372v-0.003z"></path>
<path fill="rgb(191, 191, 191)" d="M9.392 13.934h3.372v0.003h-3.372v-0.003z"></path>
<path fill="rgb(191, 191, 191)" d="M9.392 13.937h3.372v0.003h-3.372v-0.003z"></path>
<path fill="rgb(191, 191, 191)" d="M9.392 13.94h3.372v0.003h-3.372v-0.003z"></path>
<path fill="rgb(191, 191, 191)" d="M9.392 13.944h3.372v0.003h-3.372v-0.003z"></path>
<path fill="rgb(191, 191, 191)" d="M9.392 13.947h3.372v0.003h-3.372v-0.003z"></path>
<path fill="rgb(191, 191, 191)" d="M9.392 13.951h3.372v0.003h-3.372v-0.003z"></path>
<path fill="rgb(191, 191, 191)" d="M9.392 13.954h3.372v0.003h-3.372v-0.003z"></path>
<path fill="rgb(191, 191, 191)" d="M9.392 13.958h3.372v0.003h-3.372v-0.003z"></path>
<path fill="rgb(191, 191, 191)" d="M9.392 13.961h3.372v0.003h-3.372v-0.003z"></path>
<path fill="rgb(191, 191, 191)" d="M9.392 13.964h3.372v0.003h-3.372v-0.003z"></path>
<path fill="rgb(191, 191, 191)" d="M9.392 13.968h3.372v0.003h-3.372v-0.003z"></path>
<path fill="rgb(191, 191, 191)" d="M9.392 13.971h3.372v0.003h-3.372v-0.003z"></path>
<path fill="rgb(191, 191, 191)" d="M9.392 13.975h3.372v0.003h-3.372v-0.003z"></path>
<path fill="rgb(191, 191, 191)" d="M9.392 13.978h3.372v0.003h-3.372v-0.003z"></path>
<path fill="rgb(191, 191, 191)" d="M9.392 13.982h3.372v0.003h-3.372v-0.003z"></path>
<path fill="rgb(191, 191, 191)" d="M9.392 13.985h3.372v0.003h-3.372v-0.003z"></path>
<path fill="rgb(191, 191, 191)" d="M9.392 13.989h3.372v0.024h-3.372v-0.024z"></path>
<path fill="rgb(191, 191, 191)" d="M9.392 14.013h3.372v0.024h-3.372v-0.024z"></path>
<path fill="rgb(191, 191, 191)" d="M9.392 14.037h3.372v0.024h-3.372v-0.024z"></path>
<path fill="rgb(191, 191, 191)" d="M9.392 14.061h3.372v0.024h-3.372v-0.024z"></path>
<path fill="rgb(191, 191, 191)" d="M9.392 14.085h3.372v0.024h-3.372v-0.024z"></path>
<path fill="rgb(191, 191, 191)" d="M9.392 14.109h3.372v0.024h-3.372v-0.024z"></path>
<path fill="rgb(191, 191, 191)" d="M9.392 14.133h3.372v0.024h-3.372v-0.024z"></path>
<path fill="rgb(191, 191, 191)" d="M9.392 14.157h3.372v0.024h-3.372v-0.024z"></path>
<path fill="rgb(191, 191, 191)" d="M9.392 14.181h3.372v0.024h-3.372v-0.024z"></path>
<path fill="rgb(191, 191, 191)" d="M9.392 14.205h3.372v0.024h-3.372v-0.024z"></path>
<path fill="rgb(191, 191, 191)" d="M9.392 14.229h3.372v0.024h-3.372v-0.024z"></path>
<path fill="rgb(191, 191, 191)" d="M9.392 14.253h3.372v0.024h-3.372v-0.024z"></path>
<path fill="rgb(191, 191, 191)" d="M9.392 14.277h3.372v0.024h-3.372v-0.024z"></path>
<path fill="rgb(191, 191, 191)" d="M9.392 14.301h3.372v0.024h-3.372v-0.024z"></path>
<path fill="rgb(191, 191, 191)" d="M9.392 14.325h3.372v0.024h-3.372v-0.024z"></path>
<path fill="rgb(191, 191, 191)" d="M9.392 14.349h3.372v0.024h-3.372v-0.024z"></path>
<path fill="rgb(191, 191, 191)" d="M9.392 14.373h3.372v0.024h-3.372v-0.024z"></path>
<path fill="rgb(191, 191, 191)" d="M9.392 14.397h3.372v0.024h-3.372v-0.024z"></path>
<path fill="rgb(191, 191, 191)" d="M9.392 14.421h3.372v0.024h-3.372v-0.024z"></path>
<path fill="rgb(191, 191, 191)" d="M9.392 14.445h3.372v0.024h-3.372v-0.024z"></path>
<path fill="rgb(191, 191, 191)" d="M9.392 14.469h3.372v0.024h-3.372v-0.024z"></path>
<path fill="rgb(191, 191, 191)" d="M9.392 14.493h3.372v0.024h-3.372v-0.024z"></path>
<path fill="rgb(191, 191, 191)" d="M9.392 14.517h3.372v0.024h-3.372v-0.024z"></path>
<path fill="rgb(191, 191, 191)" d="M9.392 14.541h3.372v0.024h-3.372v-0.024z"></path>
<path fill="rgb(191, 191, 191)" d="M9.392 14.565h3.372v0.024h-3.372v-0.024z"></path>
<path fill="rgb(191, 191, 191)" d="M9.392 14.589h3.372v0.024h-3.372v-0.024z"></path>
<path fill="rgb(191, 191, 191)" d="M9.392 14.614h3.372v0.024h-3.372v-0.024z"></path>
<path fill="rgb(191, 191, 191)" d="M9.392 14.638h3.372v0.024h-3.372v-0.024z"></path>
<path fill="rgb(191, 191, 191)" d="M9.392 14.662h3.372v0.024h-3.372v-0.024z"></path>
<path fill="rgb(191, 191, 191)" d="M9.392 14.686h3.372v0.024h-3.372v-0.024z"></path>
<path fill="rgb(191, 191, 191)" d="M9.392 14.71h3.372v0.024h-3.372v-0.024z"></path>
<path fill="rgb(191, 191, 191)" d="M9.392 14.734h3.372v0.024h-3.372v-0.024z"></path>
<path fill="rgb(191, 191, 191)" d="M9.392 14.758h3.372v0.024h-3.372v-0.024z"></path>
<path fill="rgb(191, 191, 191)" d="M9.392 14.782h3.372v0.024h-3.372v-0.024z"></path>
<path fill="rgb(191, 191, 191)" d="M9.392 14.806h3.372v0.024h-3.372v-0.024z"></path>
<path fill="rgb(191, 191, 191)" d="M9.392 14.83h3.372v0.021h-3.372v-0.021z"></path>
<path fill="rgb(32, 33, 33)" d="M17.011 12.455c0 0.391-0.317 0.709-0.708 0.709h-10.45c-0.391 0-0.709-0.317-0.709-0.709v-6.996c0-0.391 0.317-0.708 0.709-0.708h10.45c0.391 0 0.708 0.317 0.708 0.708v6.996z"></path>
<path fill="rgb(102, 102, 102)" d="M5.654 5.227h10.827v7.375h-10.827v-7.375z"></path>
<path fill="rgb(51, 51, 51)" d="M5.654 5.216h10.827v0.037h-10.827v-0.037z"></path>
<path fill="rgb(32, 33, 33)" d="M8.238 14.793c0 0.274-0.154 0.428-0.428 0.428h-4.394c-0.274 0-0.428-0.154-0.428-0.428v-6.047c0-0.274 0.154-0.428 0.428-0.428h4.394c0.274 0 0.428 0.154 0.428 0.428v6.047z"></path>
<path fill="rgb(112, 112, 112)" d="M5.666 8.613c0 0.025-0.020 0.045-0.045 0.045s-0.045-0.020-0.045-0.045c0-0.025 0.020-0.045 0.045-0.045s0.045 0.020 0.045 0.045z"></path>
<path fill="rgb(102, 102, 102)" d="M3.386 8.897h4.454v5.726h-4.454v-5.726z"></path>
<path fill="rgb(32, 33, 33)" d="M16.095 14.692c0 0.369-0.188 0.557-0.557 0.557l-1.895 0c-0.369 0-0.557-0.188-0.557-0.557v-4.571c0-0.369 0.188-0.557 0.557-0.557h1.895c0.369 0 0.557 0.188 0.557 0.557v4.571z"></path>
<path fill="rgb(17, 17, 17)" d="M14.821 14.859c0 0.123-0.1 0.223-0.223 0.223s-0.223-0.1-0.223-0.223c0-0.123 0.1-0.223 0.223-0.223s0.223 0.1 0.223 0.223z"></path>
<path fill="rgb(0, 0, 0)" d="M14.943 9.982c0 0.036-0.029 0.065-0.065 0.065h-0.576c-0.036 0-0.065-0.029-0.065-0.065v0c0-0.036 0.029-0.065 0.065-0.065h0.576c0.036 0 0.065 0.029 0.065 0.065v0z"></path>
<path fill="rgb(102, 102, 102)" d="M13.26 10.274h2.645v4.153h-2.645v-4.153z"></path>
</svg>
