<?xml version="1.0" encoding="utf-8"?>
<!-- Generated by IcoMoon.io -->
<!DOCTYPE svg PUBLIC "-//W3C//DTD SVG 1.1//EN" "http://www.w3.org/Graphics/SVG/1.1/DTD/svg11.dtd">
<svg version="1.1" xmlns="http://www.w3.org/2000/svg" xmlns:xlink="http://www.w3.org/1999/xlink" width="20" height="20" viewBox="0 0 20 20">
<path fill="rgb(208, 228, 242)" d="M0.309 10c0-5.352 4.339-9.691 9.69-9.691s9.691 4.338 9.691 9.691c0 5.352-4.339 9.69-9.691 9.69s-9.69-4.339-9.69-9.69z"></path>
<path fill="rgb(40, 45, 77)" d="M7.629 10.564c0 0 0.064-0.357 0.192-0.774-0.034-0.162-0.067-0.331-0.099-0.508 0 0-0.617-2.959-1.662-2.959s-1.567 2.959-1.567 2.959c-0.712 3.989-2.137 4.241-2.137 4.241h3.767c0 0 1.004-0.148 1.506-2.959z"></path>
<path fill="rgb(91, 132, 203)" d="M10.061 11.297c-0.056-0.222-0.108-0.466-0.156-0.734 0 0-0.435-2.056-1.171-2.056-0.429 0-0.734 0.699-0.913 1.282 0.377 1.794 0.903 2.73 1.326 3.216 0.284-0.326 0.614-0.854 0.914-1.708z"></path>
<path fill="rgb(74, 114, 187)" d="M9.147 13.006c-0.423-0.486-0.948-1.421-1.326-3.216-0.128 0.416-0.192 0.774-0.192 0.774-0.502 2.811-1.506 2.959-1.506 2.959h2.311c0-0 0.31-0.055 0.713-0.517z"></path>
<path fill="rgb(68, 86, 150)" d="M13.708 10.564c0 0 0.064-0.357 0.192-0.773-0.034-0.162-0.067-0.331-0.099-0.508 0 0-0.617-2.959-1.662-2.959s-1.567 2.959-1.567 2.959c-0.146 0.819-0.323 1.481-0.511 2.015 0.528 2.104 1.35 2.226 1.35 2.226h0.791c-0 0 1.004-0.148 1.506-2.959z"></path>
<path fill="rgb(57, 77, 146)" d="M10.061 11.297c-0.3 0.854-0.63 1.383-0.914 1.708 0.403 0.463 0.713 0.517 0.713 0.517h1.551c0 0-0.821-0.121-1.35-2.226z"></path>
<path fill="rgb(57, 77, 146)" d="M9.147 13.006c-0.403 0.463-0.713 0.517-0.713 0.517h1.425c0 0-0.31-0.055-0.713-0.517z"></path>
<path fill="rgb(135, 183, 240)" d="M15.984 10.564c0 0-0.435-2.056-1.171-2.056-0.43 0-0.734 0.699-0.913 1.282 0.737 3.503 2.039 3.733 2.039 3.733h1.552c-0-0-1.004-0.148-1.506-2.959z"></path>
<path fill="rgb(121, 169, 231)" d="M13.9 9.79c-0.128 0.416-0.192 0.773-0.192 0.773-0.502 2.811-1.506 2.959-1.506 2.959h3.736c0-0-1.301-0.23-2.038-3.733z"></path>
</svg>
