<?xml version="1.0" encoding="utf-8"?>
<!-- Generator: Adobe Illustrator 16.0.0, SVG Export Plug-In . SVG Version: 6.00 Build 0)  -->
<!DOCTYPE svg PUBLIC "-//W3C//DTD SVG 1.1//EN" "http://www.w3.org/Graphics/SVG/1.1/DTD/svg11.dtd">
<svg version="1.1" id="Layer_1" xmlns="http://www.w3.org/2000/svg" xmlns:xlink="http://www.w3.org/1999/xlink" x="0px" y="0px"
	 width="20px" height="20px" viewBox="0 0 20 20" enable-background="new 0 0 20 20" xml:space="preserve">
<g>
	<path fill="#EDC92F" d="M10,0.31C4.648,0.31,0.31,4.647,0.31,10c0,5.352,4.339,9.69,9.689,9.69c5.352,0,9.69-4.339,9.69-9.69
		C19.689,4.647,15.352,0.31,10,0.31z"/>
	<path fill="#A46434" d="M13.967,7.932l-0.924-0.676c-0.062-0.046-0.176-0.003-0.301,0.099l-1.766-1.575l-0.004,0.005
		c0,0-1.477-1.604-1.794-1.836c-2.22-1.625-4.155-0.221-4.712,0.491c0,0,2.245-0.123,2.812,0.84C7.975,6.461,7.34,7.097,7.34,7.097
		l-5.646,7.898c0.515,0.854,1.158,1.621,1.902,2.277c2.262-3.918,5.011-8.662,5.235-8.97c0.79-1.078,3.019,0.342,3.019,0.342
		c-0.02,0.091-0.146,0.348-0.104,0.379L12.672,9.7c0.098,0.071,0.332-0.081,0.521-0.34l0.607-0.829
		C13.99,8.272,14.064,8.004,13.967,7.932L13.967,7.932z"/>
	<path fill="#935328" d="M10.012,6.449c-0.003-0.002-0.007-0.003-0.011-0.005C9.607,6.339,9.342,6.486,8.945,6.391l-6.419,9.776
		c0.327,0.396,0.686,0.766,1.07,1.105c2.215-3.836,4.896-8.463,5.218-8.943C8.775,8.262,9.637,6.654,10.012,6.449L10.012,6.449z"/>
	<path fill="#7B7C7C" d="M13.967,7.932l-0.924-0.676c-0.062-0.046-0.176-0.003-0.301,0.099l-1.766-1.575l-0.004,0.005
		c0,0-1.477-1.604-1.794-1.836c-2.22-1.625-4.155-0.221-4.712,0.491c0,0,2.245-0.123,2.812,0.84C7.975,6.461,7.34,7.097,7.34,7.097
		l1.492,1.206c0.79-1.078,3.019,0.342,3.019,0.342c-0.02,0.091-0.146,0.348-0.104,0.379L12.672,9.7
		c0.098,0.071,0.332-0.081,0.521-0.34l0.607-0.829C13.99,8.272,14.064,8.004,13.967,7.932L13.967,7.932z"/>
	<path fill="#626463" d="M13.967,7.932l-0.924-0.676c-0.062-0.046-0.176-0.003-0.301,0.099l-1.766-1.575l-0.004,0.005
		c0,0-0.542-0.588-1.04-1.104L8.076,7.692l0.757,0.61c0.789-1.078,3.019,0.342,3.019,0.342c-0.02,0.091-0.146,0.348-0.104,0.379
		L12.672,9.7c0.098,0.071,0.332-0.081,0.521-0.34l0.607-0.829C13.99,8.272,14.064,8.004,13.967,7.932z"/>
	<path fill="#868786" d="M13.762,12.722c-0.17,0-0.307,0.056-0.307,0.124s0.137,3.331,0.307,3.331c0.168,0,0.307-3.263,0.307-3.331
		S13.93,12.722,13.762,12.722z"/>
	<path fill="#6A6D6C" d="M13.762,12.722c-0.17,0-0.307,0.056-0.307,0.124c0,0.011,0.002,0.105,0.01,0.256l0.584,0.214
		c0.01-0.216,0.02-0.456,0.02-0.47C14.068,12.777,13.93,12.722,13.762,12.722L13.762,12.722z"/>
	<path fill="#868786" d="M15.041,12.5c0,0.285-0.574,0.518-1.279,0.518c-0.707,0-1.281-0.232-1.281-0.518
		c0-0.286,0.574-0.518,1.281-0.518C14.467,11.982,15.041,12.214,15.041,12.5z"/>
	<path fill="#666867" d="M14.279,12.5c0,0.115-0.232,0.209-0.518,0.209c-0.287,0-0.52-0.094-0.52-0.209s0.232-0.209,0.52-0.209
		C14.047,12.291,14.279,12.385,14.279,12.5z"/>
</g>
</svg>
