<?xml version="1.0" encoding="utf-8"?>
<!-- Generator: Adobe Illustrator 16.0.0, SVG Export Plug-In . SVG Version: 6.00 Build 0)  -->
<!DOCTYPE svg PUBLIC "-//W3C//DTD SVG 1.1//EN" "http://www.w3.org/Graphics/SVG/1.1/DTD/svg11.dtd">
<svg version="1.1" id="Layer_1" xmlns="http://www.w3.org/2000/svg" xmlns:xlink="http://www.w3.org/1999/xlink" x="0px" y="0px"
	 width="20px" height="20px" viewBox="0 0 20 20" enable-background="new 0 0 20 20" xml:space="preserve">
<g>
	<path fill="#344E5D" d="M19.69,10c0,5.351-4.338,9.69-9.69,9.69S0.31,15.353,0.31,10c0-5.352,4.338-9.69,9.69-9.69
		S19.69,4.647,19.69,10z"/>
	<path fill="#9BD7D9" d="M9.679,14.802v-0.97l-1.138-1.364l1.114-1.018c-1.786-0.297-1.31-2.336-1.31-2.336
		c0.014-0.648,0.692-1.297,1.2-1.693l-0.741-0.76l0.237-0.286C9.05,6.333,9.064,6.298,9.09,6.273
		c0.016-0.016,0.038-0.026,0.065-0.034l0.521-0.63V5.315C9.582,5.398,9.413,5.45,9.336,5.45C9.224,5.449,9.112,5.386,9.112,5.386
		s0-0.131,0.088-0.283c0.087-0.151,0.263-0.259,0.263-0.259s0.13,0.089,0.214,0.193V4.43l0.56-0.768L9.94,3.227
		c-0.021,0-0.041-0.002-0.062-0.002c-0.885,0-1.731,0.17-2.508,0.476C7.9,3.589,8.763,3.441,9.2,3.542c0,0-0.526,0.628-0.789,0.694
		C8.147,4.302,7.709,4.518,7.6,4.604C7.489,4.691,7.117,4.54,7.337,4.366s0.811-0.564,0.679-0.607S7.293,4.127,7.051,4.301
		C6.81,4.475,6.612,4.734,6.504,4.908c-0.11,0.174-0.088,0.628-0.329,0.715C5.935,5.71,4.881,6.144,4.53,6.447
		S3.802,6.975,3.649,7.278C3.608,7.357,3.596,7.36,3.6,7.32C3.522,7.495,3.452,7.674,3.39,7.857
		c0.121,0.024,0.016,0.759-0.027,0.907L3.046,9.474C3.031,9.637,3.022,9.802,3.02,9.969c0.018-0.036,0.038-0.062,0.065-0.074
		c0.24-0.107,0.313-0.131,0.526,0.087s0.503,0.586,0.613,0.781c0.109,0.195,0.504,0.434,0.504,0.586s-0.088,0.521,0,0.693
		c0.089,0.174,0.219,0.196,0.417,0.282c0.198,0.085,0.57,0.216,0.79,0.411c0.219,0.195,0.526,0.434,0.459,0.693
		c-0.066,0.262-0.196,0.65-0.152,0.803s0.197,0.412,0.021,0.52c-0.176,0.108-0.307,0.087-0.284,0.282
		C6,15.22,6.203,15.784,6.277,15.926c1.035,0.642,2.253,1.013,3.558,1.021l0.805-1.012L9.679,14.802L9.679,14.802z"/>
	<path fill="#5C9340" d="M9.679,8.575v-1.02L9.548,7.422C9.039,7.818,8.36,8.467,8.347,9.115c0,0-0.477,2.038,1.31,2.336l0.022-0.02
		v-0.874l1.178-0.935L9.679,8.575L9.679,8.575z"/>
	<path fill="#43B665" d="M9.091,6.275c-0.023,0.023-0.04,0.06-0.048,0.102l0.113-0.136C9.129,6.249,9.106,6.261,9.091,6.275z"/>
	<path fill="#5C9340" d="M9.679,5.316V5.038C9.594,4.934,9.464,4.845,9.464,4.845s-0.176,0.108-0.263,0.26
		C9.113,5.256,9.113,5.387,9.113,5.387s0.111,0.064,0.224,0.064C9.414,5.451,9.583,5.399,9.679,5.316z"/>
	<path fill="#5C9340" d="M7.372,3.701c-0.267,0.056-0.45,0.103-0.45,0.103C4.796,4.845,3.863,6.505,3.863,6.505
		c-0.1,0.215-0.251,0.699-0.263,0.817C3.597,7.363,3.61,7.359,3.65,7.28c0.152-0.304,0.53-0.527,0.881-0.831
		s1.403-0.737,1.645-0.824S6.395,5.083,6.505,4.91c0.108-0.174,0.307-0.434,0.547-0.607C7.293,4.13,7.885,3.718,8.017,3.761
		c0.131,0.044-0.461,0.434-0.679,0.607c-0.22,0.174,0.153,0.324,0.263,0.238c0.108-0.086,0.547-0.304,0.812-0.368
		c0.263-0.064,0.789-0.694,0.789-0.694C8.764,3.443,7.901,3.591,7.372,3.701L7.372,3.701z"/>
	<path fill="#5C9340" d="M5.936,12.735c-0.22-0.195-0.592-0.326-0.79-0.411c-0.198-0.086-0.328-0.108-0.417-0.282
		c-0.088-0.173,0-0.541,0-0.693s-0.395-0.391-0.504-0.586c-0.11-0.194-0.402-0.562-0.613-0.781C3.399,9.763,3.325,9.787,3.085,9.895
		C3.058,9.908,3.037,9.934,3.02,9.969c-0.13,0.282,0.043,1.206,0.043,1.206c0.49,3.605,3.224,4.768,3.224,4.768
		c-0.002-0.004-0.007-0.012-0.01-0.017c-0.074-0.142-0.277-0.706-0.298-0.893c-0.022-0.195,0.109-0.174,0.284-0.282
		c0.175-0.107,0.022-0.367-0.021-0.52s0.088-0.543,0.152-0.803C6.459,13.169,6.153,12.931,5.936,12.735L5.936,12.735z"/>
	<path fill="#5C9340" d="M3.363,8.766c0.043-0.148,0.148-0.883,0.027-0.907C3.39,7.857,3.388,7.856,3.385,7.856
		c-0.009,0.035-0.019,0.067-0.027,0.1c-0.121,0.373-0.21,0.759-0.267,1.157C3.085,9.149,3.079,9.188,3.073,9.229
		C3.062,9.309,3.049,9.396,3.034,9.502l0.013-0.028L3.363,8.766L3.363,8.766z"/>
	<path fill="#9BD7D9" d="M10.41,7.033c0.986-0.391,1.337,0.064,1.337,0.064c0.391,0.21,1.298,0.097,1.742,0.023l-0.121-0.11
		c0,0,0.396-0.347,0.265-0.542c-0.131-0.194-0.417,0.065-0.658,0.065s-0.569,0.194-0.701,0.021s-0.22-0.13-0.351-0.021
		c-0.132,0.108-0.373,0.281-0.395,0.174c-0.021-0.109-0.416-0.065-0.438-0.174c-0.021-0.109,0.066-0.413-0.131-0.348
		c-0.197,0.064-0.482,0.281-0.526,0.391C10.39,6.686,10.236,7.01,10.083,7.01c-0.097,0-0.289,0.034-0.435,0.027l0.303,0.31
		c0.263-0.196,0.459-0.315,0.459-0.315V7.033z"/>
	<path fill="#9BD7D9" d="M10.104,4.469v1.141c0.007-0.021,0.018-0.036,0.033-0.044c0.098-0.049,0.359-0.613,0.535-0.678
		c0.176-0.065,0.636,0.174,0.703,0.021c0,0,0.021-0.455-0.066-0.521c-0.088-0.064-0.154-0.259-0.307-0.238
		c-0.152,0.022-0.219,0.174-0.109,0.238c0.11,0.065,0.197,0.326,0.131,0.326c-0.065,0-0.658,0.043-0.679-0.108
		c-0.021-0.15,0.065-0.52,0.263-0.649s0.613-0.108,0.745-0.043c0.132,0.064,0.284-0.065,0.329-0.173
		c0.043-0.108-0.625-0.472-0.821-0.472c0,0,1.463,0.11,2.969,1.007c-1-0.629-2.175-1.004-3.436-1.042l0.296,0.435l-0.586,0.803
		V4.469z"/>
	<path fill="#9BD7D9" d="M10.146,6.123c-0.021-0.113-0.066-0.326-0.054-0.455L9.64,6.214C9.87,6.202,10.168,6.233,10.146,6.123
		L10.146,6.123z"/>
	<path fill="#9BD7D9" d="M17.05,10.087c0-0.768-0.127-1.506-0.36-2.194c0.106,0.333,0.193,0.689,0.258,1.073
		c0,0-0.554-1.824-0.925-1.932c0,0-0.197,0.13-0.328,0.107c-0.131-0.021-0.789-0.433-0.832-0.325
		c-0.046,0.109,0.307,0.478,0.679,0.521s0.395,0.087,0.417,0.282c0.021,0.195,0.086,0.499,0.043,0.694
		c-0.043,0.196-0.307,0.78-0.789,0.391l-0.964-0.885c0.226,0.366,0.47,0.763,0.636,0.928c0.328,0.325,0.789,0.759,0.789,0.759
		c0.657-0.152,0.263,1.019,0.263,1.019c-0.11,0.391-0.548,1.647-0.548,1.647c-0.021,0.281-0.329,1.366-0.329,1.366
		c-0.526,1.561-2.191,2.038-2.191,2.038c0.021-0.174-0.154-0.736-0.154-0.736c-0.263-0.651-0.065-1.497-0.065-1.497
		c0.021-0.253-0.264-0.672-0.264-0.672c-0.174-0.194-0.24-1.105-0.24-1.105c-0.205-0.629-1.626-0.263-2.037-0.143v0.06L9.015,12.48
		l1.092,1.311v0.969l0.998,1.174l-0.807,1.013c3.74-0.057,6.756-3.104,6.756-6.857L17.05,10.087z"/>
	<path fill="#5C9340" d="M11.747,7.099c0,0-0.351-0.455-1.337-0.064c0,0-0.198,0.118-0.459,0.315l0.154,0.159v1.015l1.244,1.104
		l-1.244,0.985v0.81c0.411-0.119,1.831-0.486,2.037,0.144c0,0,0.065,0.91,0.241,1.105c0,0,0.284,0.42,0.262,0.673
		c0,0-0.196,0.846,0.066,1.496c0,0,0.175,0.562,0.154,0.736c0,0,1.665-0.478,2.19-2.038c0,0,0.308-1.084,0.331-1.366
		c0,0,0.438-1.257,0.547-1.647c0,0,0.395-1.171-0.263-1.019c0,0-0.46-0.434-0.79-0.759c-0.165-0.165-0.41-0.562-0.634-0.928
		L13.49,7.124c-0.444,0.072-1.352,0.186-1.742-0.023L11.747,7.099z"/>
	<path fill="#43B665" d="M16.689,7.893c-0.58-1.837-1.731-2.949-2.859-3.62C15.158,5.106,16.181,6.381,16.689,7.893z"/>
	<path fill="#5C9340" d="M11.683,3.739c-0.045,0.107-0.198,0.238-0.329,0.173c-0.131-0.066-0.548-0.086-0.745,0.043
		c-0.197,0.131-0.285,0.499-0.263,0.649c0.021,0.151,0.613,0.108,0.679,0.108c0.066,0-0.021-0.26-0.131-0.326
		c-0.109-0.064-0.043-0.217,0.109-0.238c0.152-0.022,0.219,0.174,0.307,0.238c0.088,0.066,0.066,0.521,0.066,0.521
		c-0.066,0.151-0.527-0.087-0.703-0.021c-0.176,0.064-0.438,0.628-0.535,0.678c-0.016,0.008-0.025,0.023-0.033,0.044V5.65
		l-0.013,0.015c-0.013,0.129,0.032,0.341,0.054,0.455c0.021,0.11-0.276,0.079-0.508,0.091L9.35,6.558
		c0.01,0.077,0.027,0.156,0.048,0.227l0.249,0.252C9.79,7.043,9.982,7.009,10.08,7.009c0.154,0,0.307-0.325,0.351-0.433
		c0.045-0.108,0.33-0.326,0.527-0.391c0.197-0.065,0.109,0.238,0.131,0.348c0.021,0.108,0.416,0.064,0.438,0.174
		c0.023,0.108,0.264-0.065,0.395-0.174c0.131-0.109,0.219-0.152,0.351,0.021s0.46-0.021,0.701-0.021s0.526-0.261,0.657-0.065
		c0.131,0.196-0.264,0.542-0.264,0.542l0.121,0.11c0.154-0.025,0.252-0.045,0.252-0.045c0.086,0.053,0.286,0.383,0.505,0.741
		L15.207,8.7c0.482,0.391,0.744-0.195,0.789-0.391c0.043-0.193-0.022-0.497-0.045-0.693c-0.021-0.194-0.043-0.238-0.416-0.282
		s-0.723-0.412-0.68-0.521c0.045-0.109,0.701,0.304,0.832,0.325c0.133,0.022,0.329-0.107,0.329-0.107
		c0.372,0.107,0.926,1.931,0.926,1.931c-0.064-0.383-0.152-0.738-0.258-1.072c-0.51-1.512-1.531-2.787-2.859-3.62
		c-1.507-0.896-2.969-1.006-2.969-1.006c0.196,0,0.865,0.363,0.82,0.471L11.683,3.739z"/>
	<path fill="#9BD7D9" d="M9.399,6.786C9.379,6.716,9.361,6.637,9.352,6.56L9.272,6.655L9.399,6.786z"/>
	<path fill="#5C9340" d="M13.742,7.077c0,0-0.099,0.02-0.252,0.045l0.758,0.696C14.029,7.459,13.83,7.13,13.742,7.077L13.742,7.077z
		"/>
</g>
</svg>
