<?xml version="1.0" encoding="utf-8"?>
<!-- Generated by IcoMoon.io -->
<!DOCTYPE svg PUBLIC "-//W3C//DTD SVG 1.1//EN" "http://www.w3.org/Graphics/SVG/1.1/DTD/svg11.dtd">
<svg version="1.1" xmlns="http://www.w3.org/2000/svg" xmlns:xlink="http://www.w3.org/1999/xlink" width="20" height="20" viewBox="0 0 20 20">
<path fill="rgb(224, 79, 95)" d="M19.691 10c0-5.352-4.339-9.691-9.69-9.691s-9.691 4.338-9.691 9.691c0 5.352 4.339 9.69 9.691 9.69s9.69-4.339 9.69-9.69z"></path>
<path fill="rgb(255, 255, 255)" d="M12.673 6.615l-0.228-0.127 0.806-1.444 0.228 0.127-0.806 1.444z"></path>
<path fill="rgb(255, 255, 255)" d="M13.524 15.661l-0.449-1.436c-0.013-0.041-0.044-0.073-0.084-0.087s-0.084-0.009-0.119 0.015l-0.673 0.449c-0.035 0.023-0.057 0.061-0.060 0.103s0.014 0.082 0.045 0.11l1.122 0.987c0.025 0.022 0.057 0.034 0.089 0.034 0.025 0 0.051-0.007 0.073-0.022 0.051-0.033 0.073-0.095 0.055-0.153z"></path>
<path fill="rgb(255, 255, 255)" d="M7.681 14.601l-0.673-0.449c-0.035-0.024-0.080-0.029-0.119-0.015s-0.071 0.046-0.084 0.087l-0.449 1.436c-0.018 0.058 0.004 0.12 0.055 0.153 0.022 0.015 0.048 0.022 0.073 0.022 0.032 0 0.064-0.011 0.089-0.034l1.122-0.987c0.031-0.028 0.048-0.068 0.045-0.11s-0.025-0.080-0.060-0.103z"></path>
<path fill="rgb(255, 255, 255)" d="M6.614 5.172l0.228-0.127 0.806 1.444-0.228 0.127-0.806-1.444z"></path>
<path fill="rgb(41, 193, 131)" d="M15.026 10.51c0 2.776-2.25 5.026-5.026 5.026s-5.026-2.25-5.026-5.026c0-2.776 2.25-5.026 5.026-5.026s5.026 2.25 5.026 5.026z"></path>
<path fill="rgb(255, 255, 255)" d="M5.752 10.51c0-2.346 1.902-4.248 4.248-4.248s4.248 1.902 4.248 4.248-1.902 4.248-4.248 4.248c-2.346 0-4.248-1.902-4.248-4.248z"></path>
<path fill="rgb(0, 0, 0)" d="M10 10.69c-0.099 0-0.18-0.080-0.18-0.179v-1.915c0-0.099 0.080-0.179 0.18-0.179s0.18 0.080 0.18 0.179v1.915c0 0.099-0.080 0.179-0.18 0.179z"></path>
<path fill="rgb(0, 0, 0)" d="M12.362 13.010c-0.034 0-0.069-0.013-0.095-0.039l-2.361-2.361c-0.053-0.053-0.053-0.138 0-0.19s0.138-0.053 0.19 0l2.361 2.361c0.053 0.053 0.053 0.138 0 0.19-0.026 0.026-0.061 0.039-0.095 0.039z"></path>
<path fill="rgb(191, 49, 43)" d="M7.044 11.997c-0.034 0-0.066-0.019-0.081-0.052-0.021-0.045-0.002-0.098 0.043-0.119l3.681-1.726c0.045-0.021 0.098-0.002 0.119 0.043s0.002 0.098-0.043 0.119l-3.681 1.726c-0.012 0.006-0.025 0.009-0.038 0.009z"></path>
<path fill="rgb(0, 0, 0)" d="M10.419 10.51c0 0.231-0.188 0.419-0.419 0.419s-0.419-0.188-0.419-0.419c0-0.231 0.188-0.419 0.419-0.419s0.419 0.188 0.419 0.419z"></path>
<path fill="rgb(255, 255, 255)" d="M10.239 10.51c0 0.132-0.107 0.239-0.239 0.239s-0.239-0.107-0.239-0.239c0-0.132 0.107-0.239 0.239-0.239s0.239 0.107 0.239 0.239z"></path>
<path fill="rgb(191, 49, 43)" d="M10.899 10.153c0 0.074-0.060 0.135-0.135 0.135s-0.135-0.060-0.135-0.135c0-0.074 0.060-0.135 0.135-0.135s0.135 0.060 0.135 0.135z"></path>
<path fill="rgb(41, 193, 131)" d="M9.119 4.901l-3.773 2.057c-0.446-0.818 0.037-1.942 1.079-2.51s2.248-0.365 2.694 0.453z"></path>
<path fill="rgb(41, 193, 131)" d="M6.709 4.448c0 0.157-0.127 0.284-0.284 0.284s-0.284-0.127-0.284-0.284c0-0.157 0.127-0.284 0.284-0.284s0.284 0.127 0.284 0.284z"></path>
<path fill="rgb(41, 193, 131)" d="M11.012 4.901l3.773 2.057c0.446-0.818-0.037-1.942-1.079-2.51s-2.248-0.365-2.694 0.453z"></path>
<path fill="rgb(41, 193, 131)" d="M13.989 4.448c0 0.157-0.127 0.284-0.284 0.284s-0.284-0.127-0.284-0.284c0-0.157 0.127-0.284 0.284-0.284s0.284 0.127 0.284 0.284z"></path>
</svg>
