<?xml version="1.0" encoding="utf-8"?>
<!-- Generator: Adobe Illustrator 16.0.0, SVG Export Plug-In . SVG Version: 6.00 Build 0)  -->
<!DOCTYPE svg PUBLIC "-//W3C//DTD SVG 1.1//EN" "http://www.w3.org/Graphics/SVG/1.1/DTD/svg11.dtd">
<svg version="1.1" id="Layer_1" xmlns="http://www.w3.org/2000/svg" xmlns:xlink="http://www.w3.org/1999/xlink" x="0px" y="0px"
	 width="20px" height="20px" viewBox="0 0 20 20" enable-background="new 0 0 20 20" xml:space="preserve">
<g>
	<path fill="#ACDDDE" d="M19.69,9.996c0,5.352-4.338,9.689-9.69,9.689s-9.69-4.338-9.69-9.689S4.647,0.307,10,0.307
		S19.69,4.644,19.69,9.996z"/>
	<path fill="#9ACA42" d="M9.999,19.692c4.121,0,7.639-2.574,9.04-6.2c-2.53-1.525-5.819-2.248-9.416-2.248
		c-3.308,0-6.355,0.611-8.791,1.896C2.136,16.952,5.747,19.693,9.999,19.692L9.999,19.692z"/>
	<path fill="#9F7235" d="M10.035,7.628c-0.113,0-0.205,0.093-0.205,0.206v3.563c0,0.112,0.092,0.205,0.205,0.205
		s0.205-0.093,0.205-0.205V7.834C10.24,7.721,10.148,7.628,10.035,7.628z"/>
	<path fill="#B28D5D" d="M10.035,7.628c-0.113,0-0.205,0.093-0.205,0.206v3.563c0,0.112,0.092,0.205,0.205,0.205V7.628L10.035,7.628
		z"/>
	<path fill="#0E9554" d="M12.039,9.816c-0.114-0.187-1.783-2.211-1.783-2.211c-0.127-0.24-0.334-0.24-0.461,0
		c0,0-1.666,1.997-1.783,2.211c-0.117,0.213-0.11,0.663,0,0.867c0.199,0.367,3.732,0.387,4.028,0
		C12.184,10.496,12.155,10.002,12.039,9.816L12.039,9.816z"/>
	<path fill="#159F57" d="M11.548,8.571L10.199,6.61c-0.096-0.182-0.252-0.182-0.349,0L8.505,8.571
		C8.408,8.753,8.373,9.047,8.47,9.228h3.112C11.679,9.047,11.644,8.753,11.548,8.571z"/>
	<path fill="#1AAA5B" d="M8.944,7.862c-0.068-0.128-0.068-0.336,0-0.465l0.957-1.8c0.068-0.129,0.179-0.129,0.248,0l0.957,1.8
		c0.068,0.129,0.068,0.337,0,0.465h-2.16H8.944z"/>
	<path fill="#9F7235" d="M13.658,8.75c-0.146,0-0.265,0.117-0.265,0.265v4.6c0,0.146,0.119,0.266,0.265,0.266
		c0.146,0,0.266-0.119,0.266-0.266v-4.6C13.924,8.868,13.805,8.75,13.658,8.75z"/>
	<path fill="#B28D5D" d="M13.658,8.75c-0.146,0-0.265,0.117-0.265,0.265v4.6c0,0.146,0.119,0.266,0.265,0.266V8.75L13.658,8.75z"/>
	<path fill="#15AA63" d="M16.244,11.573c-0.146-0.241-2.303-2.854-2.303-2.854c-0.163-0.31-0.431-0.31-0.595,0
		c0,0-2.148,2.578-2.301,2.854c-0.152,0.276-0.145,0.856,0,1.12c0.257,0.475,4.815,0.498,5.198,0
		C16.43,12.451,16.392,11.812,16.244,11.573z"/>
	<path fill="#1EAE64" d="M15.608,9.967L13.87,7.435c-0.125-0.233-0.326-0.233-0.449,0l-1.738,2.532
		c-0.125,0.233-0.172,0.613-0.047,0.846h4.02C15.78,10.58,15.732,10.2,15.608,9.967z"/>
	<path fill="#28B467" d="M12.251,9.052c-0.088-0.166-0.088-0.436,0-0.602l1.234-2.322c0.088-0.166,0.23-0.166,0.318,0l1.234,2.322
		c0.088,0.166,0.088,0.436,0,0.602h-2.789H12.251z"/>
	<path fill="#9F7235" d="M7.046,10.002c-0.17,0-0.308,0.138-0.308,0.307v5.327c0,0.17,0.138,0.307,0.308,0.307
		c0.169,0,0.307-0.137,0.307-0.307v-5.327C7.353,10.14,7.215,10.002,7.046,10.002z"/>
	<path fill="#B28D5D" d="M7.046,10.002c-0.17,0-0.308,0.138-0.308,0.307v5.327c0,0.17,0.138,0.307,0.308,0.307V10.002L7.046,10.002z
		"/>
	<path fill="#15AA63" d="M10.041,13.272c-0.17-0.278-2.665-3.304-2.665-3.304c-0.191-0.359-0.5-0.359-0.69,0
		c0,0-2.488,2.985-2.665,3.304s-0.166,0.991,0,1.298c0.296,0.55,5.577,0.577,6.021,0C10.255,14.29,10.211,13.553,10.041,13.272z"/>
	<path fill="#1EAE64" d="M9.305,11.412L7.292,8.479c-0.145-0.271-0.379-0.271-0.521,0l-2.013,2.933
		c-0.145,0.27-0.197,0.709-0.054,0.98h4.652C9.501,12.121,9.448,11.682,9.305,11.412z"/>
	<path fill="#28B467" d="M5.416,10.353c-0.103-0.192-0.103-0.504,0-0.695l1.43-2.689c0.103-0.192,0.269-0.192,0.37,0l1.431,2.689
		c0.103,0.192,0.103,0.504,0,0.695H5.416L5.416,10.353z"/>
</g>
</svg>
