<?xml version="1.0" encoding="utf-8"?>
<!-- Generator: Adobe Illustrator 16.0.0, SVG Export Plug-In . SVG Version: 6.00 Build 0)  -->
<!DOCTYPE svg PUBLIC "-//W3C//DTD SVG 1.1//EN" "http://www.w3.org/Graphics/SVG/1.1/DTD/svg11.dtd">
<svg version="1.1" id="Layer_1" xmlns="http://www.w3.org/2000/svg" xmlns:xlink="http://www.w3.org/1999/xlink" x="0px" y="0px"
	 width="20px" height="20px" viewBox="0 0 20 20" enable-background="new 0 0 20 20" xml:space="preserve">
<g>
	<path fill="#F2BE3E" d="M0.31,10c0-5.353,4.338-9.69,9.69-9.69s9.69,4.338,9.69,9.69s-4.338,9.69-9.69,9.69S0.31,15.353,0.31,10z"
		/>
	<path fill="#BBBCBB" d="M6.112,9.229L9.9,11.21l3.775-1.981L16.27,7.86V6.923H3.519V7.86L6.112,9.229z"/>
	<path fill="#D7D7D7" d="M9.894,4.474L3.52,7.139v0.647h12.751V7.139L9.894,4.474z"/>
	<path fill="#BBBCBB" d="M9.894,3.754L3.52,6.852v0.647L9.9,4.541l6.37,2.958V6.852L9.894,3.754z"/>
	<path fill="#E9E9EA" d="M5.118,4.802l8.25-1.317l1.154,7.228l-8.25,1.316L5.118,4.802z"/>
	<path fill="#818282" d="M6.107,5.817l6.728-1.073l0.068,0.426L6.175,6.244L6.107,5.817z"/>
	<path fill="#818282" d="M6.301,6.882l6.729-1.074l0.067,0.426L6.37,7.308L6.301,6.882z"/>
	<path fill="#818282" d="M6.48,8.012l6.728-1.074l0.068,0.426L6.549,8.438L6.48,8.012z"/>
	<path fill="#818282" d="M6.655,9.107l3.709-0.592l0.068,0.426L6.724,9.534L6.655,9.107z"/>
	<path fill="#E7E7E7" d="M16.271,14.704H3.52V7.85l6.375,3.433l6.376-3.433V14.704z"/>
	<path fill="#BBBCBB" d="M16.271,7.86l-0.034-0.064L3.52,14.622v0.081h0.296l12.455-6.618V7.86z"/>
	<path fill="#BBBCBB" d="M3.52,7.86l0.033-0.064l12.718,6.826v0.081h-0.297L3.52,8.085V7.86z"/>
</g>
</svg>
