<?xml version="1.0" encoding="utf-8"?>
<!-- Generator: Adobe Illustrator 16.0.0, SVG Export Plug-In . SVG Version: 6.00 Build 0)  -->
<!DOCTYPE svg PUBLIC "-//W3C//DTD SVG 1.1//EN" "http://www.w3.org/Graphics/SVG/1.1/DTD/svg11.dtd">
<svg version="1.1" id="Layer_1" xmlns="http://www.w3.org/2000/svg" xmlns:xlink="http://www.w3.org/1999/xlink" x="0px" y="0px"
	 width="20px" height="20px" viewBox="0 0 20 20" enable-background="new 0 0 20 20" xml:space="preserve">
<g>
	<path fill="#EDC92C" d="M19.69,10c0,5.352-4.339,9.69-9.69,9.69S0.31,15.352,0.31,10c0-5.351,4.339-9.69,9.69-9.69
		S19.69,4.648,19.69,10z"/>
	<path fill="#7C7B7B" d="M9.075,4.633L7.804,3.742L7.157,4.066l0.657,1.31L7.061,5.754l-0.656-1.31L5.823,4.735L5.776,6.287
		l1.502,0.669l4.06,9.04c0.061,0.118,0.209,0.164,0.333,0.103l1.708-0.855c0.125-0.062,0.177-0.209,0.117-0.327L8.701,6.324
		L9.075,4.633L9.075,4.633z"/>
	<path fill="#868787" d="M9.062,4.61L7.833,3.714l-0.61,0.307l0.648,1.295L7.159,5.673L6.51,4.377L5.96,4.653L5.942,6.175
		l1.445,0.682l4.041,8.95c0.059,0.117,0.201,0.164,0.319,0.105l1.615-0.81c0.117-0.058,0.165-0.201,0.106-0.32L8.734,6.26
		L9.062,4.61z"/>
	<path fill="#A46434" d="M12.719,4.997c0.46,0.78,0.04,1.2,0.04,1.2l-6.296,8.809c-0.078,0.106-0.055,0.256,0.051,0.333l1.458,1.068
		c0.106,0.077,0.256,0.054,0.333-0.052c0,0,5.184-9.013,5.439-9.361c0.521-0.712,1.994,0.226,1.994,0.226
		c-0.014,0.06-0.098,0.229-0.069,0.25l0.61,0.446c0.064,0.047,0.22-0.053,0.345-0.224l0.4-0.546
		c0.125-0.171,0.175-0.349,0.108-0.396l-0.609-0.446c-0.041-0.03-0.115-0.003-0.197,0.065L15.16,5.328l-0.002,0.003
		c0,0-0.975-1.059-1.185-1.212c-1.466-1.074-2.743-0.146-3.11,0.323c0,0,1.482-0.08,1.857,0.556L12.719,4.997z"/>
	<path fill="#626463" d="M12.719,4.997c0.46,0.78,0.04,1.2,0.04,1.2l0.985,0.797c0.521-0.712,1.994,0.226,1.994,0.226
		c-0.014,0.06-0.098,0.229-0.069,0.25l0.61,0.446c0.064,0.047,0.22-0.053,0.345-0.224l0.4-0.546
		c0.125-0.171,0.175-0.349,0.108-0.396l-0.609-0.446c-0.041-0.03-0.115-0.003-0.197,0.065L15.16,5.328l-0.002,0.003
		c0,0-0.975-1.059-1.185-1.212c-1.466-1.074-2.743-0.146-3.11,0.323c0,0,1.482-0.08,1.857,0.556L12.719,4.997z"/>
</g>
</svg>
