<?xml version="1.0" encoding="utf-8"?>
<!-- Generated by IcoMoon.io -->
<!DOCTYPE svg PUBLIC "-//W3C//DTD SVG 1.1//EN" "http://www.w3.org/Graphics/SVG/1.1/DTD/svg11.dtd">
<svg version="1.1" xmlns="http://www.w3.org/2000/svg" xmlns:xlink="http://www.w3.org/1999/xlink" width="20" height="20" viewBox="0 0 20 20">
<path fill="rgb(37, 183, 211)" d="M19.691 10c0-5.352-4.339-9.691-9.69-9.691s-9.691 4.338-9.691 9.691c0 5.352 4.339 9.69 9.691 9.69s9.69-4.339 9.69-9.69z"></path>
<path fill="rgb(255, 255, 255)" d="M5.708 7.090c0-0.544 0.174-1.094 0.524-1.652s0.858-1.020 1.528-1.386c0.669-0.366 1.451-0.549 2.343-0.549 0.83 0 1.562 0.153 2.197 0.459s1.126 0.722 1.472 1.249c0.346 0.527 0.519 1.099 0.519 1.717 0 0.486-0.099 0.913-0.296 1.279s-0.432 0.682-0.704 0.948c-0.272 0.266-0.76 0.714-1.463 1.343-0.195 0.177-0.351 0.333-0.468 0.468s-0.205 0.257-0.262 0.369c-0.057 0.112-0.102 0.223-0.133 0.335s-0.079 0.308-0.142 0.588c-0.109 0.595-0.449 0.893-1.021 0.893-0.298 0-0.548-0.097-0.751-0.292s-0.305-0.483-0.305-0.867c0-0.481 0.074-0.897 0.223-1.249s0.346-0.661 0.592-0.927c0.246-0.266 0.578-0.582 0.996-0.948 0.366-0.32 0.631-0.562 0.794-0.725s0.3-0.345 0.412-0.545c0.112-0.2 0.167-0.418 0.167-0.652 0-0.458-0.17-0.844-0.511-1.159s-0.78-0.472-1.317-0.472c-0.63 0-1.093 0.159-1.39 0.476s-0.549 0.785-0.755 1.403c-0.195 0.647-0.564 0.97-1.107 0.97-0.321 0-0.591-0.113-0.811-0.339s-0.33-0.471-0.33-0.734zM9.897 16.497c-0.349 0-0.654-0.113-0.914-0.339s-0.391-0.542-0.391-0.948c0-0.361 0.126-0.664 0.378-0.91s0.561-0.369 0.927-0.369c0.361 0 0.664 0.123 0.91 0.369s0.369 0.549 0.369 0.91c0 0.401-0.129 0.715-0.386 0.944s-0.555 0.343-0.893 0.343z"></path>
</svg>
